<?xml version="1.0" encoding="UTF-8" standalone="no"?>
<!-- Created with Inkscape (http://www.inkscape.org/) -->

<svg
   xmlns:dc="http://purl.org/dc/elements/1.1/"
   xmlns:cc="http://creativecommons.org/ns#"
   xmlns:rdf="http://www.w3.org/1999/02/22-rdf-syntax-ns#"
   xmlns:svg="http://www.w3.org/2000/svg"
   xmlns="http://www.w3.org/2000/svg"
   xmlns:xlink="http://www.w3.org/1999/xlink"
   xmlns:sodipodi="http://sodipodi.sourceforge.net/DTD/sodipodi-0.dtd"
   xmlns:inkscape="http://www.inkscape.org/namespaces/inkscape"
   width="512"
   height="512"
   id="svg2"
   version="1.1"
   inkscape:version="0.91 r13725"
   sodipodi:docname="ic_launcher.svg">
  <defs
     id="defs4">
    <linearGradient
       inkscape:collect="always"
       id="linearGradient3369">
      <stop
         style="stop-color:#333333;stop-opacity:1;"
         offset="0"
         id="stop3371" />
      <stop
         style="stop-color:#333333;stop-opacity:0.75"
         offset="1"
         id="stop3373" />
    </linearGradient>
    <linearGradient
       inkscape:collect="always"
       id="linearGradient3133">
      <stop
         style="stop-color:#ffffff;stop-opacity:1;"
         offset="0"
         id="stop3135" />
      <stop
         style="stop-color:#ffffff;stop-opacity:0;"
         offset="1"
         id="stop3137" />
    </linearGradient>
    <linearGradient
       inkscape:collect="always"
       xlink:href="#linearGradient3133"
       id="linearGradient3139"
       x1="132.14285"
       y1="158.07646"
       x2="555.69543"
       y2="712.56903"
       gradientUnits="userSpaceOnUse"
       gradientTransform="matrix(0.86938227,0,0,0.89894629,-782.32406,311.90683)" />
    <radialGradient
       xlink:href="#linearGradient2254"
       id="radialGradient3406"
       gradientUnits="userSpaceOnUse"
       gradientTransform="matrix(0.08685949,-0.5807721,0.62210423,0.09357629,81.335815,598.42261)"
       cx="380"
       cy="389.50504"
       fx="380"
       fy="389.50504"
       r="148.85715" />
    <radialGradient
       xlink:href="#linearGradient2254"
       id="radialGradient2340"
       gradientUnits="userSpaceOnUse"
       gradientTransform="matrix(-0.1055661,-0.930902,0.9936313,-0.1126799,-134.69275,638.06628)"
       cx="380"
       cy="389.50504"
       fx="380"
       fy="389.50504"
       r="148.85715" />
    <linearGradient
       id="linearGradient2254">
      <stop
         offset="0"
         id="stop2256"
         stop-color="#bedcdc" />
      <stop
         id="stop2264"
         offset="0.5"
         stop-opacity="0.741497"
         stop-color="#8e9e9e" />
      <stop
         offset="1"
         id="stop2258"
         stop-opacity="0.839216"
         stop-color="#404f5c" />
    </linearGradient>
    <filter
       id="filter3390">
      <feGaussianBlur
         stdDeviation="10.093933"
         id="feGaussianBlur3392" />
    </filter>
    <filter
       id="filter3340">
      <feGaussianBlur
         stdDeviation="3.959091"
         id="feGaussianBlur3342" />
    </filter>
    <linearGradient
       inkscape:collect="always"
       xlink:href="#linearGradient3369"
       id="linearGradient3375"
       x1="112.12693"
       y1="97.768028"
       x2="550.53314"
       y2="680.62604"
       gradientUnits="userSpaceOnUse"
       gradientTransform="matrix(0.93243852,0,0,0.93243852,-803.06754,300.35432)" />
    <filter
       id="filter3390-5">
      <feGaussianBlur
         stdDeviation="10.093933"
         id="feGaussianBlur3392-5" />
    </filter>
    <radialGradient
       xlink:href="#linearGradient2254"
       id="radialGradient2340-1"
       gradientUnits="userSpaceOnUse"
       gradientTransform="matrix(-0.1055661,-0.930902,0.9936313,-0.1126799,-134.69275,638.06628)"
       cx="380"
       cy="389.50504"
       fx="380"
       fy="389.50504"
       r="148.85715" />
    <filter
       id="filter3340-0">
      <feGaussianBlur
         stdDeviation="3.959091"
         id="feGaussianBlur3342-7" />
    </filter>
    <filter
       id="filter4265">
      <feGaussianBlur
         stdDeviation="10.093933"
         id="feGaussianBlur4267" />
    </filter>
    <radialGradient
       xlink:href="#linearGradient2254"
       id="radialGradient3406-0"
       gradientUnits="userSpaceOnUse"
       gradientTransform="matrix(0.08685949,-0.5807721,0.62210423,0.09357629,81.335815,598.42261)"
       cx="380"
       cy="389.50504"
       fx="380"
       fy="389.50504"
       r="148.85715" />
    <filter
       id="filter4278">
      <feGaussianBlur
         stdDeviation="3.959091"
         id="feGaussianBlur4280" />
    </filter>
    <filter
       id="filter3390-5-3">
      <feGaussianBlur
         stdDeviation="10.093933"
         id="feGaussianBlur3392-5-2" />
    </filter>
    <radialGradient
       xlink:href="#linearGradient2254"
       id="radialGradient2340-1-5"
       gradientUnits="userSpaceOnUse"
       gradientTransform="matrix(-0.04711726,-0.70267684,-0.78650659,0.06151576,945.43095,839.84721)"
       cx="380"
       cy="389.50504"
       fx="380"
       fy="389.50504"
       r="148.85715" />
    <filter
       id="filter3340-0-8">
      <feGaussianBlur
         stdDeviation="3.959091"
         id="feGaussianBlur3342-7-6" />
    </filter>
    <filter
       id="filter4422">
      <feGaussianBlur
         stdDeviation="10.093933"
         id="feGaussianBlur4424" />
    </filter>
    <radialGradient
       xlink:href="#linearGradient2254"
       id="radialGradient3406-0-6"
       gradientUnits="userSpaceOnUse"
       gradientTransform="matrix(-0.14788057,-0.41614505,-0.46967833,0.15969052,795.19207,739.18207)"
       cx="380"
       cy="389.50504"
       fx="380"
       fy="389.50504"
       r="148.85715" />
    <filter
       id="filter4435">
      <feGaussianBlur
         stdDeviation="3.959091"
         id="feGaussianBlur4437" />
    </filter>
    <filter
       id="filter3390-5-3-1">
      <feGaussianBlur
         stdDeviation="10.093933"
         id="feGaussianBlur3392-5-2-0" />
    </filter>
    <radialGradient
       xlink:href="#linearGradient2254"
       id="radialGradient2340-1-5-5"
       gradientUnits="userSpaceOnUse"
       gradientTransform="matrix(-0.1055661,-0.930902,0.9936313,-0.1126799,-134.69275,638.06628)"
       cx="380"
       cy="389.50504"
       fx="380"
       fy="389.50504"
       r="148.85715" />
    <filter
       id="filter3340-0-8-0">
      <feGaussianBlur
         stdDeviation="3.959091"
         id="feGaussianBlur3342-7-6-5" />
    </filter>
    <filter
       id="filter4539">
      <feGaussianBlur
         stdDeviation="10.093933"
         id="feGaussianBlur4541" />
    </filter>
    <radialGradient
       xlink:href="#linearGradient2254"
       id="radialGradient3406-0-6-2"
       gradientUnits="userSpaceOnUse"
       gradientTransform="matrix(0.08685949,-0.5807721,0.62210423,0.09357629,81.335815,598.42261)"
       cx="380"
       cy="389.50504"
       fx="380"
       fy="389.50504"
       r="148.85715" />
    <filter
       id="filter4552">
      <feGaussianBlur
         stdDeviation="3.959091"
         id="feGaussianBlur4554" />
    </filter>
    <filter
       id="filter3390-1">
      <feGaussianBlur
         stdDeviation="10.093933"
         id="feGaussianBlur3392-7" />
    </filter>
    <radialGradient
       xlink:href="#linearGradient2254"
       id="radialGradient2340-2"
       gradientUnits="userSpaceOnUse"
       gradientTransform="matrix(-0.1055661,-0.930902,0.9936313,-0.1126799,-134.69275,638.06628)"
       cx="380"
       cy="389.50504"
       fx="380"
       fy="389.50504"
       r="148.85715" />
    <filter
       id="filter3340-2">
      <feGaussianBlur
         stdDeviation="3.959091"
         id="feGaussianBlur3342-2" />
    </filter>
    <filter
       id="filter4831">
      <feGaussianBlur
         stdDeviation="10.093933"
         id="feGaussianBlur4833" />
    </filter>
    <radialGradient
       xlink:href="#linearGradient2254"
       id="radialGradient3406-4"
       gradientUnits="userSpaceOnUse"
       gradientTransform="matrix(0.08685949,-0.5807721,0.62210423,0.09357629,81.335815,598.42261)"
       cx="380"
       cy="389.50504"
       fx="380"
       fy="389.50504"
       r="148.85715" />
    <filter
       id="filter4844">
      <feGaussianBlur
         stdDeviation="3.959091"
         id="feGaussianBlur4846" />
    </filter>
    <linearGradient
       inkscape:collect="always"
       xlink:href="#linearGradient3369"
       id="linearGradient3375-5"
       x1="112.12693"
       y1="97.768028"
       x2="550.53314"
       y2="680.62604"
       gradientUnits="userSpaceOnUse"
       gradientTransform="matrix(0.93243852,0,0,0.93243852,-805.61647,301.67194)" />
    <filter
       id="filter3390-1-8">
      <feGaussianBlur
         stdDeviation="10.093933"
         id="feGaussianBlur3392-7-0" />
    </filter>
    <radialGradient
       xlink:href="#linearGradient2254"
       id="radialGradient2340-2-1"
       gradientUnits="userSpaceOnUse"
       gradientTransform="matrix(-0.03942831,-0.58800873,-0.65815851,0.05147715,-1093.3483,2103.139)"
       cx="380"
       cy="389.50504"
       fx="380"
       fy="389.50504"
       r="148.85715" />
    <filter
       id="filter3340-2-0">
      <feGaussianBlur
         stdDeviation="3.959091"
         id="feGaussianBlur3342-2-3" />
    </filter>
    <filter
       id="filter5219">
      <feGaussianBlur
         stdDeviation="10.093933"
         id="feGaussianBlur5221" />
    </filter>
    <radialGradient
       xlink:href="#linearGradient2254"
       id="radialGradient3406-4-2"
       gradientUnits="userSpaceOnUse"
       gradientTransform="matrix(-0.1237483,-0.34823536,-0.39303267,0.13363101,-1311.726,1789.3851)"
       cx="380"
       cy="389.50504"
       fx="380"
       fy="389.50504"
       r="148.85715" />
    <filter
       id="filter5232">
      <feGaussianBlur
         stdDeviation="3.959091"
         id="feGaussianBlur5234" />
    </filter>
    <filter
       inkscape:collect="always"
       style="color-interpolation-filters:sRGB"
       id="filter5416"
       x="-0.044551278"
       width="1.0891026"
       y="-0.030202802"
       height="1.0604056">
      <feGaussianBlur
         inkscape:collect="always"
         stdDeviation="5.9622511"
         id="feGaussianBlur5418" />
    </filter>
  </defs>
  <sodipodi:namedview
     id="base"
     pagecolor="#ffffff"
     bordercolor="#666666"
     borderopacity="1.0"
     inkscape:pageopacity="0.0"
     inkscape:pageshadow="2"
     inkscape:zoom="0.35"
     inkscape:cx="184.86129"
     inkscape:cy="250.20112"
     inkscape:document-units="px"
     inkscape:current-layer="layer1"
     showgrid="false"
     inkscape:window-width="1366"
     inkscape:window-height="702"
     inkscape:window-x="0"
     inkscape:window-y="27"
     inkscape:window-maximized="1"
     showguides="true"
     inkscape:guide-bbox="true" />
  <metadata
     id="metadata7">
    <rdf:RDF>
      <cc:Work
         rdf:about="">
        <dc:format>image/svg+xml</dc:format>
        <dc:type
           rdf:resource="http://purl.org/dc/dcmitype/StillImage" />
        <dc:title></dc:title>
      </cc:Work>
    </rdf:RDF>
  </metadata>
  <g
     inkscape:label="Layer 1"
     inkscape:groupmode="layer"
     id="layer1"
     transform="translate(0,-540.36218)">
    <g
       id="g5420"
       transform="translate(804.32654,138.11606)">
      <path
         id="rect3059-9"
         d="m -505.61917,424.85949 c -88.9696,0 -160.5958,14.11021 -160.5958,31.63672 l 0,96.63671 a 165.52501,151.92738 0 0 1 55.5547,-8.9746 165.52501,151.92738 0 0 1 165.5254,151.92773 165.52501,151.92738 0 0 1 -130.9766,148.39453 118.20084,108.49082 0 0 1 -26.6601,47.74223 c 26.9428,4.0265 60.5741,6.414 97.1524,6.414 88.9695,0 160.5937,-14.1082 160.5937,-31.63474 l 0,-410.50586 c 0,-17.52651 -71.6242,-31.63672 -160.5937,-31.63672 z"
         style="fill:url(#linearGradient3375-5);fill-opacity:1;stroke:none;stroke-width:2;stroke-miterlimit:4;stroke-dasharray:none;stroke-opacity:1;filter:url(#filter5416)"
         inkscape:connector-curvature="0" />
      <path
         id="rect3059"
         d="m -503.07031,423.54187 c -88.96954,0 -160.59571,14.11021 -160.59571,31.63672 l 0,96.63671 a 165.52501,151.92738 0 0 1 55.55469,-8.9746 165.52501,151.92738 0 0 1 165.52539,151.92773 165.52501,151.92738 0 0 1 -130.97656,148.39453 118.20084,108.49082 0 0 1 -26.66016,47.74219 c 26.94287,4.02655 60.57405,6.41406 97.15235,6.41406 88.96954,0 160.59375,-14.10826 160.59375,-31.63476 l 0,-410.50586 c 0,-17.52651 -71.62421,-31.63672 -160.59375,-31.63672 z"
         style="fill:url(#linearGradient3375);fill-opacity:1;stroke:#d2c7c7;stroke-width:1;stroke-miterlimit:4;stroke-dasharray:none;stroke-opacity:1"
         inkscape:connector-curvature="0" />
      <path
         id="rect3065"
         d="m -626.13477,470.29382 c -7.22456,0 -13.04101,4.58182 -13.04101,10.27344 l 0,64.82812 a 165.52501,151.92738 0 0 1 30.61914,-2.7207 165.52501,151.92738 0 0 1 165.52539,151.92578 165.52501,151.92738 0 0 1 -131.23633,148.44922 118.20084,108.49082 0 0 1 -1.79687,6.46094 l 196.5625,0 c 7.22456,0 13.04101,-4.58182 13.04101,-10.27344 l 0,-358.66992 c 0,-5.69162 -5.81645,-10.27344 -13.04101,-10.27344 l -246.63282,0 z"
         style="fill:url(#linearGradient3139);fill-opacity:1;stroke-width:4;stroke-miterlimit:4;stroke-dasharray:none"
         inkscape:connector-curvature="0" />
      <rect
         ry="6.8928809"
         rx="13.040734"
         y="446.53766"
         x="-585.50317"
         height="6.8928809"
         width="169.54292"
         id="rect3141"
         style="fill:#ffffff;fill-opacity:1;stroke-width:4;stroke-miterlimit:4;stroke-dasharray:none" />
      <rect
         ry="9.8900042"
         rx="13.040734"
         y="863.68512"
         x="-533.32642"
         height="17.316715"
         width="64.604668"
         id="rect3143"
         style="fill:#ffffff;fill-opacity:1;stroke-width:4;stroke-miterlimit:4;stroke-dasharray:none" />
      <g
         transform="matrix(-0.6492248,0.12187083,0.11597831,0.61783442,-485.81928,523.44544)"
         id="g3315"
         style="stroke-width:6.20735121;stroke-miterlimit:4;stroke-dasharray:none">
        <title
           id="title3317">Layer 1</title>
        <g
           id="layer1-1"
           style="stroke-width:6.20735121;stroke-miterlimit:4;stroke-dasharray:none">
          <path
             style="opacity:0.88484904;fill:#000000;stroke-width:6.20735121;stroke-miterlimit:4;stroke-dasharray:none;filter:url(#filter3390)"
             inkscape:connector-curvature="0"
             stroke-miterlimit="4"
             d="m 248.46262,24.285717 c -2.30852,18.204082 -17.17353,32.27261 -35.17725,32.27261 -17.08887,1.5e-5 -31.37666,-12.655418 -34.75775,-29.509974 -12.52153,2.824717 -24.597,6.881617 -36.13608,12.023745 6.32393,16.847412 0.13164,36.47982 -15.28142,45.803246 -14.31104,8.656792 -32.013455,5.707283 -43.087635,-6.090355 -7.766533,7.565834 -14.993797,15.762688 -21.543812,24.518391 13.789089,11.22014 17.903797,31.68299 8.92915,47.9694 -8.559708,15.53342 -26.214695,22.17452 -41.859121,16.76418 -3.749353,12.07551 -6.500004,24.62726 -8.120131,37.54672 17.970688,1.83374 32.031067,17.70506 32.031067,37.01305 1.5e-5,18.18794 -12.476597,33.31303 -28.944818,36.54213 1.225348,5.78552 2.645823,11.48165 4.314756,17.07812 3.221302,-0.88852 6.515381,-1.30124 9.768127,-1.22433 11.992718,0.28338 23.561363,6.94378 29.993538,18.61639 8.755028,15.88785 5.046982,35.74264 -7.940346,47.12176 7.246521,9.99353 15.320808,19.2967 24.120682,27.78333 6.691078,-8.4921 16.518773,-13.2601 26.637623,-13.49924 6.2819,-0.14844 12.65183,1.46152 18.48753,4.99158 16.18077,9.78781 22.21735,30.92163 14.26266,48.28336 11.0022,4.77249 22.48696,8.55859 34.36823,11.23889 3.38109,-16.85456 17.66888,-29.50998 34.75775,-29.50998 18.00369,0 32.86873,14.06851 35.17725,32.27261 10.75848,-1.5365 21.25235,-3.94314 31.40179,-7.18911 -5.30957,-16.45337 1.00842,-35.09357 15.91068,-44.10801 5.3052,-3.20913 11.08471,-4.80542 16.80957,-4.9602 11.50982,-0.3111 22.80603,5.27725 29.81375,15.57123 10.23486,-8.11536 19.70819,-17.24103 28.28561,-27.21823 -12.30267,-11.48841 -15.66287,-30.8317 -7.10135,-46.36832 6.43216,-11.67261 18.0008,-18.33301 29.99353,-18.61643 4.78406,-0.11306 9.64307,0.79602 14.26267,2.79404 4.14523,-10.7529 7.46777,-21.95184 9.88797,-33.49698 -15.43485,-4.04187 -26.87732,-18.68286 -26.87732,-36.10261 0,-18.52654 12.95041,-33.89646 29.87369,-36.7305 -2.34781,-18.92325 -7.09229,-37.05158 -13.90311,-54.05976 -16.56622,8.31577 -36.71668,2.00132 -46.05402,-14.94334 -8.7294,-15.84135 -5.04974,-35.63238 7.85047,-47.027603 -7.74423,-8.739464 -16.18244,-16.813454 -25.22934,-24.07888 -10.88877,13.434311 -29.71332,17.254211 -44.79553,8.130943 -14.1749,-8.574455 -20.57804,-25.863491 -16.59983,-41.690689 -10.81094,-3.596403 -22.01507,-6.266912 -33.52923,-7.911182 z M 221.0759,158.65027 c 1.22868,0 2.44209,0.0297 3.65556,0.0942 4.85381,0.25827 9.59238,1.03183 14.14281,2.26034 1.13765,0.30692 2.27093,0.64099 3.38588,1.00459 2.22982,0.7277 4.402,1.56638 6.53206,2.51149 1.06507,0.47225 2.10974,0.97989 3.14617,1.5069 0.51822,0.26351 1.04706,0.53984 1.55811,0.81622 0.0714,0.0384 0.13846,0.087 0.20975,0.12558 0.69516,0.37652 1.38589,0.76203 2.06749,1.16156 0.75044,0.44204 1.48301,0.88231 2.2173,1.34993 1.95797,1.24775 3.86477,2.5846 5.69308,4.01838 0.68564,0.53737 1.37024,1.10168 2.03751,1.66386 0.40991,0.34613 0.82617,0.68063 1.22851,1.03598 0.54325,0.47852 1.05884,0.98056 1.58808,1.47551 0.99191,0.92764 1.96747,1.873 2.90646,2.85681 0.60428,0.63349 1.18585,1.2907 1.76786,1.94641 0.01,0.0109 0.0203,0.0204 0.03,0.0314 0.26911,0.30357 0.54474,0.60217 0.80902,0.91042 0.6782,0.791 1.33188,1.59637 1.97757,2.41729 0.18125,0.23046 0.36075,0.45792 0.53934,0.69066 0.53824,0.69995 1.07379,1.4144 1.58807,2.13477 0.6409,0.89932 1.25519,1.80127 1.85776,2.73125 0.84177,1.29911 1.66251,2.63096 2.42703,3.98698 0.4357,0.77212 0.84888,1.5649 1.25849,2.35452 1.09695,2.11478 2.09488,4.26665 2.99634,6.49848 0.39517,0.97761 0.78274,1.95243 1.13864,2.95099 0.0363,0.10194 0.0539,0.21179 0.0899,0.31393 0.31604,0.89874 0.61542,1.81654 0.89893,2.73125 0.039,0.12561 0.0815,0.25081 0.11984,0.37672 0.11032,0.36247 0.19452,0.73392 0.29962,1.09877 0.25821,0.89607 0.52256,1.7899 0.74912,2.69986 0.0624,0.25041 0.11984,0.50201 0.17978,0.75343 0.1535,0.64305 0.28207,1.29689 0.41949,1.94641 0.16959,0.80152 0.33469,1.60637 0.4794,2.41732 0.008,0.0423 0.0225,0.0832 0.03,0.12556 0.0129,0.0727 0.0173,0.14704 0.03,0.21976 0.16293,0.93706 0.32034,1.87657 0.44943,2.82542 0.009,0.0633 0.0215,0.12505 0.03,0.18836 0.0277,0.20768 0.0338,0.41964 0.0599,0.62788 0.10989,0.87637 0.21911,1.75139 0.29962,2.63706 0.10003,1.10067 0.18582,2.21398 0.23971,3.32772 0.0606,1.26117 0.0899,2.55315 0.0899,3.83002 0,2.57463 -0.11624,5.08952 -0.35956,7.59724 -10e-4,0.0103 9.8e-4,0.0211 0,0.0314 -0.12115,1.24336 -0.27069,2.47989 -0.44946,3.70445 -10e-4,0.0102 0.002,0.0212 0,0.0314 -0.1792,1.22441 -0.39386,2.43758 -0.62924,3.64166 -0.002,0.0101 0.002,0.0213 0,0.0314 -0.11792,0.60199 -0.25306,1.19299 -0.38953,1.78943 -0.1319,0.59781 -0.27393,1.19722 -0.41949,1.78944 -0.002,0.01 0.002,0.0216 0,0.0314 -0.29096,1.18198 -0.61466,2.3575 -0.95884,3.51608 -0.003,0.01 0.003,0.0218 0,0.0314 -0.69207,2.32643 -1.49923,4.62105 -2.39709,6.84379 -0.90146,2.23182 -1.89939,4.3837 -2.99634,6.49848 -0.004,0.008 0.004,0.0233 0,0.0314 -1.09351,2.10629 -2.29004,4.14404 -3.56567,6.12174 -0.005,0.007 0.005,0.0241 0,0.0314 -0.6359,0.98523 -1.29862,1.93719 -1.9776,2.88821 -0.005,0.007 0.005,0.0245 0,0.0314 -0.67945,0.95105 -1.40641,1.87879 -2.12741,2.79407 -0.005,0.006 0.005,0.0251 0,0.0314 -2.90021,3.67914 -6.13578,7.07123 -9.64826,10.10874 -3.518,3.04223 -7.31955,5.7384 -11.3562,8.03677 -2.01845,1.14929 -4.10225,2.19486 -6.23242,3.13934 -2.13005,0.9444 -4.30223,1.78443 -6.53206,2.51151 -1.11494,0.36359 -2.24823,0.69763 -3.38588,1.00458 -4.55043,1.22748 -9.289,2.00232 -14.14281,2.26034 -1.21347,0.0645 -2.42688,0.0942 -3.65556,0.0942 -1.22868,0 -2.44209,-0.0297 -3.65556,-0.0942 -4.85381,-0.25827 -9.59238,-1.03183 -14.14281,-2.26034 -1.13765,-0.30695 -2.27094,-0.64099 -3.38588,-1.00458 -2.22983,-0.72769 -4.40201,-1.56638 -6.53206,-2.51151 -2.13017,-0.94448 -4.21397,-1.99005 -6.23242,-3.13934 -1.00917,-0.57501 -1.9874,-1.19693 -2.9664,-1.82083 -0.97899,-0.6239 -1.95647,-1.27701 -2.90647,-1.94641 -0.9474,-0.67078 -1.8724,-1.3555 -2.78662,-2.07196 -1.82844,-1.43301 -3.58676,-2.94568 -5.27359,-4.55206 -0.83807,-0.79816 -1.65609,-1.64148 -2.457,-2.48011 -0.81109,-0.84927 -1.59565,-1.68502 -2.36712,-2.57428 -0.005,-0.006 0.005,-0.0256 0,-0.0314 -0.76656,-0.88409 -1.52137,-1.77789 -2.24727,-2.69983 -0.72599,-0.92157 -1.44358,-1.86761 -2.12741,-2.82544 -0.68378,-0.95828 -1.33745,-1.9266 -1.9776,-2.91961 -1.28041,-1.9852 -2.46872,-4.03837 -3.56568,-6.15314 -1.09694,-2.11478 -2.09486,-4.26667 -2.99635,-6.49848 -0.004,-0.009 0.004,-0.0225 0,-0.0314 -0.44708,-1.1073 -0.89162,-2.22534 -1.28844,-3.3591 -0.003,-0.009 0.003,-0.0221 0,-0.0314 -0.39958,-1.1431 -0.76167,-2.28488 -1.10864,-3.4533 -0.33952,-1.14291 -0.64088,-2.28826 -0.92888,-3.45329 -0.0206,-0.0834 -0.0396,-0.1676 -0.0599,-0.25114 -0.25835,-1.06049 -0.50464,-2.15576 -0.71913,-3.23355 -0.0538,-0.27089 -0.0988,-0.5443 -0.14981,-0.81623 -0.14345,-0.76405 -0.29856,-1.51953 -0.4195,-2.29173 -0.0605,-0.38675 -0.12497,-0.77283 -0.17978,-1.16156 -0.004,-0.0306 0.004,-0.0636 0,-0.0942 -0.14294,-1.0214 -0.25671,-2.04196 -0.35957,-3.07657 -0.0178,-0.17848 -0.0434,-0.35483 -0.0599,-0.53369 -0.0979,-1.05861 -0.15482,-2.13059 -0.20975,-3.20215 -0.004,-0.0848 -0.0259,-0.16625 -0.0299,-0.25114 -0.0616,-1.27144 -0.0899,-2.5427 -0.0899,-3.83002 0,-1.28732 0.0283,-2.55864 0.0899,-3.83002 0.0587,-1.25877 0.14856,-2.51872 0.26967,-3.76723 9.9e-4,-0.0104 -9.9e-4,-0.021 0,-0.0314 0.12063,-1.24347 0.27119,-2.47972 0.44945,-3.70444 0.001,-0.0102 -0.001,-0.0211 0,-0.0314 0.17872,-1.22454 0.39436,-2.43743 0.62924,-3.64167 0.002,-0.01 -0.002,-0.0214 0,-0.0314 0.23535,-1.20412 0.51898,-2.39662 0.809,-3.57888 0.002,-0.01 -0.002,-0.0216 0,-0.0314 0.29049,-1.18215 0.61515,-2.35735 0.95885,-3.51609 0.003,-0.009 -0.003,-0.0219 0,-0.0314 0.34697,-1.16812 0.70906,-2.31051 1.10864,-3.45329 0.29941,-0.85622 0.63065,-1.70166 0.95884,-2.54288 0.0373,-0.0955 0.0822,-0.18728 0.11985,-0.28255 0.16135,-0.40866 0.31141,-0.81938 0.47942,-1.22435 0.25914,-0.62385 0.53413,-1.23741 0.80902,-1.85221 0.18829,-0.42164 0.37375,-0.83843 0.56931,-1.25574 0.43075,-0.91821 0.88249,-1.8331 1.34835,-2.73125 0.004,-0.008 -0.004,-0.0234 0,-0.0314 0.54842,-1.05731 1.1129,-2.08225 1.70794,-3.10796 0.59936,-1.03311 1.21261,-2.04573 1.85774,-3.04518 0.63559,-0.98543 1.29899,-1.93703 1.9776,-2.88821 0.005,-0.007 -0.005,-0.0248 0,-0.0314 0.67909,-0.95122 1.40675,-1.87862 2.12741,-2.79404 0.005,-0.006 -0.005,-0.0253 0,-0.0314 0.72591,-0.92148 1.48071,-1.81626 2.24727,-2.69985 2.29985,-2.65098 4.7623,-5.127 7.401,-7.40889 3.518,-3.04223 7.31953,-5.73843 11.3562,-8.03676 2.01845,-1.1493 4.10225,-2.19485 6.23242,-3.13935 2.13005,-0.94439 4.30223,-1.78441 6.53206,-2.51149 1.11495,-0.36361 2.24823,-0.69768 3.38588,-1.0046 4.55043,-1.22748 9.289,-2.00232 14.14281,-2.26034 1.21347,-0.0645 2.42688,-0.0942 3.65556,-0.0942 z"
             id="path3344" />
          <path
             style="fill:#c0c0c0;stroke-width:6.20735121;stroke-miterlimit:4;stroke-dasharray:none"
             inkscape:connector-curvature="0"
             stroke-miterlimit="4"
             id="path2274"
             d="m 249.6384,25.241638 c -2.4076,18.120819 -17.91083,32.125 -36.6875,32.125 -17.82254,1.5e-5 -32.72373,-12.597519 -36.25,-29.375 -13.05912,2.811798 -25.65302,6.850143 -37.6875,11.96875 6.59542,16.770355 0.1373,36.312973 -15.9375,45.59375 -14.92545,8.617218 -33.387881,5.681183 -44.937503,-6.0625 -8.09996,7.531219 -15.637527,15.690613 -22.46875,24.406252 14.381088,11.16882 18.672455,31.53808 9.3125,47.75 -8.9272,15.46237 -27.340164,22.07309 -43.65625,16.6875 -3.910324,12.02029 -6.779068,24.51465 -8.46875,37.375 18.742218,1.82535 33.40625,17.62408 33.40625,36.84375 1.5e-5,18.10476 -13.012253,33.16067 -30.1875,36.375 1.277954,5.75903 2.759415,11.42917 4.5,17 3.359619,-0.88443 6.79512,-1.29526 10.1875,-1.21875 12.507599,0.28213 24.572922,6.91208 31.28125,18.53125 9.130905,15.81521 5.263657,35.57922 -8.28125,46.90625 7.557648,9.94781 15.978577,19.20843 25.15625,27.65625 6.978363,-8.45319 17.227966,-13.19947 27.781253,-13.4375 6.5516,-0.14777 13.19503,1.45483 19.28125,4.96875 16.87545,9.74304 23.1712,30.78021 14.875,48.0625 11.47454,4.75067 23.45239,8.51947 35.84375,11.1875 3.52627,-16.77747 18.42746,-29.375 36.25,-29.375 18.77664,0 34.27987,14.00415 36.6875,32.125 11.22039,-1.52948 22.16482,-3.92511 32.75,-7.15625 -5.53757,-16.37812 1.05172,-34.93305 16.59375,-43.90625 5.53293,-3.19446 11.5606,-4.78345 17.53125,-4.9375 12.00396,-0.30969 23.78512,5.25311 31.09378,15.5 10.67425,-8.07825 20.55432,-17.16217 29.5,-27.09375 -12.83087,-11.43585 -16.33533,-30.69068 -7.40625,-46.15625 6.70831,-11.61917 18.77362,-18.24912 31.28125,-18.53125 4.98938,-0.11255 10.05707,0.79239 14.875,2.78125 4.32318,-10.70374 7.78839,-21.85141 10.3125,-33.34375 -16.0976,-4.02341 -28.03125,-18.59738 -28.03125,-35.9375 0,-18.44177 13.50635,-33.74143 31.15625,-36.5625 -2.44861,-18.8367 -7.39685,-36.88211 -14.5,-53.8125 -17.27747,8.27774 -38.29303,1.99215 -48.03125,-14.875 -9.10419,-15.76889 -5.26654,-35.46939 8.1875,-46.812502 -8.07678,-8.699493 -16.8772,-16.736557 -26.3125,-23.96875 -11.35633,13.372879 -30.98905,17.175293 -46.71878,8.09375 -14.78348,-8.535233 -21.46149,-25.745178 -17.3125,-41.5 -11.27509,-3.579941 -22.96024,-6.238251 -34.96875,-7.875 z M 221.0759,158.99164 c 1.28143,0 2.54693,0.0295 3.8125,0.0937 5.06219,0.25708 10.00421,1.0271 14.75,2.25 1.18649,0.30551 2.36844,0.63806 3.53125,1 2.32556,0.72436 4.591,1.5592 6.8125,2.5 1.11081,0.47009 2.20031,0.9754 3.28125,1.5 0.54046,0.2623 1.09201,0.53738 1.625,0.8125 0.0745,0.0382 0.14441,0.0866 0.21875,0.125 0.725,0.37478 1.4454,0.75854 2.15625,1.15625 0.78265,0.44 1.54669,0.87826 2.3125,1.34375 2.04205,1.24203 4.0307,2.57278 5.9375,4 0.71508,0.53491 1.4291,1.09668 2.125,1.65625 0.42749,0.34454 0.86163,0.67752 1.28125,1.03125 0.56656,0.47632 1.10428,0.97607 1.65625,1.46875 1.03448,0.9234 2.05194,1.86444 3.03125,2.84375 0.63022,0.63058 1.23675,1.28479 1.84375,1.9375 0.0101,0.0109 0.0212,0.0204 0.0312,0.0312 0.28067,0.30218 0.56814,0.59945 0.84375,0.90625 0.70736,0.78738 1.3891,1.58908 2.0625,2.40625 0.18902,0.2294 0.37619,0.45581 0.5625,0.6875 0.56134,0.69674 1.11987,1.40793 1.65625,2.125 0.66839,0.8952 1.30905,1.79303 1.9375,2.71875 0.8779,1.29318 1.73385,2.61892 2.53125,3.96875 0.4544,0.76858 0.88534,1.55774 1.3125,2.34375 1.14404,2.1051 2.18481,4.24713 3.125,6.46875 0.41211,0.97314 0.81634,1.94351 1.1875,2.9375 0.0379,0.10147 0.0563,0.21081 0.0937,0.3125 0.32959,0.89462 0.64181,1.80826 0.9375,2.71875 0.0406,0.12503 0.085,0.24966 0.125,0.375 0.11505,0.36081 0.20285,0.73056 0.3125,1.09375 0.26931,0.892 0.54495,1.78171 0.78125,2.6875 0.065,0.24927 0.125,0.49972 0.1875,0.75 0.16006,0.6401 0.29416,1.29095 0.4375,1.9375 0.17688,0.79785 0.34903,1.59903 0.5,2.40625 0.008,0.0421 0.0235,0.0828 0.0312,0.125 0.0134,0.0723 0.0181,0.14636 0.0312,0.21875 0.16989,0.93277 0.3341,1.86798 0.46875,2.8125 0.009,0.063 0.0224,0.12448 0.0312,0.1875 0.0289,0.20675 0.0353,0.41772 0.0625,0.625 0.11459,0.8724 0.22851,1.74341 0.3125,2.625 0.10428,1.09564 0.19375,2.20385 0.25,3.3125 0.0632,1.2554 0.0937,2.54147 0.0937,3.8125 0,2.56286 -0.12125,5.06625 -0.375,7.5625 -0.001,0.0103 10e-4,0.021 0,0.0312 -0.12635,1.23767 -0.28232,2.46853 -0.46875,3.6875 -0.002,0.0102 0.002,0.0211 0,0.0312 -0.18692,1.21881 -0.41077,2.42642 -0.65625,3.625 -0.002,0.01 0.002,0.0212 0,0.0312 -0.12299,0.59924 -0.26392,1.18753 -0.40625,1.78125 -0.13758,0.59506 -0.28571,1.19174 -0.4375,1.78125 -0.003,0.01 0.003,0.0215 0,0.0312 -0.30347,1.17657 -0.64106,2.34671 -1,3.5 -0.003,0.01 0.003,0.0217 0,0.0312 -0.72181,2.31582 -1.56363,4.59991 -2.5,6.8125 -0.94019,2.22162 -1.98096,4.36364 -3.125,6.46875 -0.004,0.008 0.004,0.0232 0,0.0312 -1.14045,2.09668 -2.3884,4.12509 -3.71875,6.09375 -0.005,0.007 0.005,0.024 0,0.0312 -0.66324,0.98074 -1.3544,1.92834 -2.0625,2.875 -0.005,0.007 0.005,0.0244 0,0.0312 -0.70862,0.94671 -1.4668,1.87021 -2.21875,2.78125 -0.005,0.006 0.005,0.025 0,0.0312 -3.02475,3.66229 -6.39923,7.03891 -10.0625,10.0625 -3.66904,3.02832 -7.63379,5.71219 -11.84375,8 -2.10511,1.14404 -4.27838,2.18481 -6.5,3.125 -2.2215,0.94006 -4.48694,1.77624 -6.8125,2.5 -1.16281,0.36194 -2.34476,0.69452 -3.53125,1 -4.74579,1.22186 -9.68781,1.99316 -14.75,2.25 -1.26557,0.0642 -2.53107,0.0937 -3.8125,0.0937 -1.28144,0 -2.54694,-0.0295 -3.8125,-0.0937 -5.0622,-0.25708 -10.00421,-1.0271 -14.75,-2.25 -1.1865,-0.30548 -2.36844,-0.63806 -3.53125,-1 -2.32557,-0.72437 -4.59101,-1.55918 -6.8125,-2.5 -2.22162,-0.94019 -4.3949,-1.98096 -6.5,-3.125 -1.05249,-0.57236 -2.07273,-1.19147 -3.09375,-1.8125 -1.02103,-0.621 -2.04047,-1.27115 -3.03125,-1.9375 -0.98807,-0.6677 -1.95279,-1.34931 -2.90625,-2.0625 -1.90696,-1.42639 -3.74076,-2.93219 -5.5,-4.53125 -0.87406,-0.79447 -1.72721,-1.63394 -2.5625,-2.46875 -0.84592,-0.8454 -1.66416,-1.67731 -2.46875,-2.5625 -0.005,-0.006 0.005,-0.0255 0,-0.0312 -0.79947,-0.88004 -1.58667,-1.76975 -2.34375,-2.6875 -0.75714,-0.91733 -1.50556,-1.85904 -2.21875,-2.8125 -0.71314,-0.95389 -1.39487,-1.91779 -2.0625,-2.90625 -1.33539,-1.97611 -2.57471,-4.0199 -3.71875,-6.125 -1.14402,-2.10511 -2.18482,-4.24713 -3.125,-6.46875 -0.004,-0.009 0.004,-0.0224 0,-0.0312 -0.46628,-1.10224 -0.9299,-2.21518 -1.34375,-3.34375 -0.003,-0.009 0.003,-0.022 0,-0.0312 -0.41675,-1.13788 -0.79438,-2.27442 -1.15625,-3.4375 -0.3541,-1.1377 -0.6684,-2.2778 -0.96875,-3.4375 -0.0215,-0.0831 -0.0413,-0.16684 -0.0625,-0.25 -0.26944,-1.05564 -0.52631,-2.14588 -0.75,-3.21875 -0.0561,-0.26963 -0.10309,-0.54181 -0.15625,-0.8125 -0.1496,-0.76056 -0.31137,-1.51258 -0.4375,-2.28125 -0.0631,-0.38498 -0.13034,-0.76929 -0.1875,-1.15625 -0.004,-0.0304 0.004,-0.0633 0,-0.0937 -0.14908,-1.0167 -0.26773,-2.03263 -0.375,-3.0625 -0.0185,-0.17765 -0.0452,-0.35321 -0.0625,-0.53125 -0.10205,-1.05377 -0.16147,-2.12085 -0.21875,-3.1875 -0.005,-0.0844 -0.027,-0.1655 -0.0312,-0.25 -0.0642,-1.2656 -0.0937,-2.53107 -0.0937,-3.8125 0,-1.28144 0.0295,-2.54694 0.0937,-3.8125 0.0613,-1.25299 0.15493,-2.5072 0.28125,-3.75 0.001,-0.0103 -0.001,-0.0209 0,-0.0312 0.12582,-1.2378 0.28283,-2.46839 0.46875,-3.6875 0.002,-0.0102 -0.002,-0.0211 0,-0.0312 0.1864,-1.21894 0.41128,-2.42627 0.65625,-3.625 0.002,-0.01 -0.002,-0.0213 0,-0.0312 0.24545,-1.19861 0.54126,-2.38565 0.84375,-3.5625 0.002,-0.01 -0.003,-0.0215 0,-0.0312 0.30294,-1.17673 0.64154,-2.34656 1,-3.5 0.003,-0.009 -0.003,-0.0218 0,-0.0312 0.36187,-1.16278 0.7395,-2.29996 1.15625,-3.4375 0.31225,-0.8523 0.65771,-1.69388 1,-2.53125 0.0389,-0.095 0.0858,-0.1864 0.125,-0.28125 0.16827,-0.4068 0.32476,-0.81562 0.5,-1.21875 0.27026,-0.62097 0.55706,-1.23175 0.84375,-1.84375 0.19638,-0.41971 0.3898,-0.8346 0.59375,-1.25 0.44925,-0.914 0.92038,-1.82471 1.40625,-2.71875 0.004,-0.008 -0.004,-0.0233 0,-0.0312 0.57196,-1.05249 1.16067,-2.07273 1.78125,-3.09375 0.62509,-1.02838 1.26468,-2.03638 1.9375,-3.03125 0.66287,-0.98093 1.35479,-1.92816 2.0625,-2.875 0.005,-0.007 -0.005,-0.0247 0,-0.0312 0.70825,-0.94687 1.46716,-1.87003 2.21875,-2.78125 0.005,-0.006 -0.005,-0.0252 0,-0.0312 0.75708,-0.91727 1.54428,-1.80796 2.34375,-2.6875 2.39859,-2.63886 4.96676,-5.10355 7.71875,-7.375 3.66903,-3.02832 7.63379,-5.71219 11.84375,-8 2.1051,-1.14401 4.27838,-2.18482 6.5,-3.125 2.22149,-0.94007 4.48693,-1.77622 6.8125,-2.5 1.16281,-0.36194 2.34475,-0.69449 3.53125,-1 4.74579,-1.22187 9.6878,-1.99314 14.75,-2.25 1.26556,-0.0642 2.53106,-0.0937 3.8125,-0.0937 z" />
          <path
             style="opacity:0.79393897;fill:#a9a9a9;stroke-width:6.20735121;stroke-miterlimit:4;stroke-dasharray:none"
             inkscape:connector-curvature="0"
             stroke-miterlimit="4"
             id="path2249"
             d="m 221.06027,62.147888 c -94.47085,1.5e-5 -171.124983,76.685392 -171.124983,171.156252 0,94.47085 76.654133,171.125 171.124983,171.125 94.47086,6e-5 171.15622,-76.65415 171.15622,-171.125 0,-94.47086 -76.68536,-171.156252 -171.15622,-171.156252 z m 0.0312,96.843752 c 1.28143,0 2.54694,0.0295 3.8125,0.0937 5.0622,0.25708 10.00421,1.0271 14.75,2.25 1.18649,0.30551 2.36844,0.63806 3.53125,1 2.32556,0.72436 4.591,1.5592 6.8125,2.5 3.3324,1.41028 6.53052,3.07559 9.59375,4.9375 2.04202,1.24203 4.0307,2.57278 5.9375,4 2.86041,2.13962 5.5727,4.47894 8.09375,7 5.04172,5.04464 9.34952,10.80755 12.78125,17.125 1.14404,2.1051 2.18482,4.24713 3.125,6.46875 3.29685,7.78506 5.30002,16.25577 5.75,25.125 0.0632,1.2554 0.0937,2.54147 0.0937,3.8125 0,2.56286 -0.12124,5.06625 -0.375,7.5625 -0.001,0.0103 10e-4,0.021 0,0.0312 -0.12634,1.23767 -0.28232,2.46853 -0.46875,3.6875 -0.002,0.0102 0.002,0.0211 0,0.0312 -0.18692,1.21881 -0.41077,2.42642 -0.65625,3.625 -0.002,0.01 0.002,0.0212 0,0.0312 -0.24597,1.19845 -0.54074,2.3858 -0.84375,3.5625 -0.002,0.01 0.003,0.0215 0,0.0312 -0.30347,1.17657 -0.64102,2.34671 -1,3.5 -0.003,0.01 0.003,0.0217 0,0.0312 -1.44656,4.64105 -3.34158,9.07959 -5.625,13.28125 -0.004,0.008 0.004,0.0232 0,0.0312 -1.14044,2.09668 -2.3884,4.12509 -3.71875,6.09375 -0.005,0.007 0.005,0.024 0,0.0312 -0.66324,0.98074 -1.3544,1.92834 -2.0625,2.875 -0.005,0.007 0.005,0.0244 0,0.0312 -0.70862,0.94671 -1.4668,1.87021 -2.21875,2.78125 -0.005,0.006 0.005,0.025 0,0.0312 -1.50986,1.82812 -3.10608,3.57483 -4.78125,5.25 -0.8454,0.84591 -1.70855,1.66418 -2.59375,2.46875 -0.87961,0.79953 -1.77017,1.58661 -2.6875,2.34375 -3.66904,3.02832 -7.63379,5.71219 -11.84375,8 -2.1051,1.14404 -4.27838,2.18481 -6.5,3.125 -2.2215,0.94006 -4.48694,1.77624 -6.8125,2.5 -1.16281,0.36194 -2.34476,0.69452 -3.53125,1 -4.74579,1.22186 -9.6878,1.99316 -14.75,2.25 -1.26556,0.0642 -2.53107,0.0937 -3.8125,0.0937 -1.28143,0 -2.54693,-0.0295 -3.8125,-0.0937 -5.06219,-0.25708 -10.00421,-1.0271 -14.75,-2.25 -1.18649,-0.30548 -2.36841,-0.63806 -3.53125,-1 -2.32556,-0.72437 -4.591,-1.55918 -6.8125,-2.5 -3.3324,-1.41028 -6.53049,-3.07559 -9.59375,-4.9375 -2.04202,-1.24204 -4.03067,-2.57279 -5.9375,-4 -3.82016,-2.85752 -7.32895,-6.06845 -10.53125,-9.59375 -0.79947,-0.88004 -1.58667,-1.76975 -2.34375,-2.6875 -3.02859,-3.66931 -5.71194,-7.63355 -8,-11.84375 -1.14401,-2.10511 -2.18481,-4.24713 -3.125,-6.46875 -0.004,-0.009 0.004,-0.0224 0,-0.0312 -0.46628,-1.10224 -0.9299,-2.21518 -1.34375,-3.34375 -0.003,-0.009 0.003,-0.022 0,-0.0312 -0.41675,-1.13788 -0.79437,-2.27442 -1.15625,-3.4375 -1.81256,-5.82355 -2.93097,-11.94248 -3.25,-18.28125 -0.0642,-1.2656 -0.0937,-2.53107 -0.0937,-3.8125 0,-2.57346 0.11917,-5.08747 0.375,-7.59375 0.12583,-1.2378 0.28284,-2.46839 0.46875,-3.6875 0.002,-0.0102 -0.002,-0.0211 0,-0.0312 0.1864,-1.21894 0.41129,-2.42627 0.65625,-3.625 0.002,-0.01 -0.002,-0.0213 0,-0.0312 0.24545,-1.19861 0.54126,-2.38565 0.84375,-3.5625 0.002,-0.01 -0.002,-0.0215 0,-0.0312 0.30295,-1.17673 0.64154,-2.34656 1,-3.5 0.003,-0.009 -0.003,-0.0218 0,-0.0312 0.36188,-1.16278 0.7395,-2.29996 1.15625,-3.4375 1.25351,-3.42136 2.74729,-6.71009 4.46875,-9.875 0.57196,-1.05249 1.16068,-2.07273 1.78125,-3.09375 0.62509,-1.02838 1.26468,-2.03638 1.9375,-3.03125 0.66287,-0.98093 1.3548,-1.92816 2.0625,-2.875 0.005,-0.007 -0.005,-0.0247 0,-0.0312 0.70825,-0.94687 1.46716,-1.87003 2.21875,-2.78125 0.005,-0.006 -0.005,-0.0252 0,-0.0312 0.75708,-0.91727 1.54428,-1.80796 2.34375,-2.6875 0.79953,-0.87961 1.59714,-1.72214 2.4375,-2.5625 0.84543,-0.84592 1.70859,-1.66416 2.59375,-2.46875 0.87961,-0.79953 1.77017,-1.58661 2.6875,-2.34375 3.66904,-3.02832 7.63379,-5.71219 11.84375,-8 2.1051,-1.14401 4.27841,-2.18482 6.5,-3.125 2.2215,-0.94007 4.48694,-1.77622 6.8125,-2.5 1.16284,-0.36194 2.34476,-0.69449 3.53125,-1 4.74579,-1.22187 9.68781,-1.99314 14.75,-2.25 1.26557,-0.0642 2.53107,-0.0937 3.8125,-0.0937 z" />
          <path
             style="opacity:0.79393897;fill:url(#radialGradient2340);stroke-width:6.20735121;stroke-miterlimit:4;stroke-dasharray:none"
             inkscape:connector-curvature="0"
             stroke-miterlimit="4"
             id="path2252"
             d="m 221.06027,84.429138 c -82.16916,0 -148.843748,66.705842 -148.843748,148.875002 0,82.16916 66.674618,148.84375 148.843748,148.84375 82.16916,0 148.87503,-66.67459 148.87503,-148.84375 0,-82.16916 -66.70587,-148.875002 -148.87503,-148.875002 z m 0.0312,74.562502 c 41.00571,0 74.28125,33.30679 74.28125,74.3125 0,41.0057 -33.27554,74.28125 -74.28125,74.28125 -41.00571,0 -74.28125,-33.3068 -74.28125,-74.3125 0,-41.00571 33.27554,-74.28125 74.28125,-74.28125 z" />
          <path
             style="opacity:0.58787902;fill:#696969;stroke-width:6.20735121;stroke-miterlimit:4;stroke-dasharray:none;filter:url(#filter3340)"
             inkscape:connector-curvature="0"
             stroke-miterlimit="4"
             d="m 221.0759,142.29135 c -50.30101,0 -91.125,40.758 -91.125,90.98123 0,50.22321 40.82402,91.01319 91.125,91.01319 50.30099,0 91.12497,-40.75803 91.12497,-90.98125 l 0,-0.0319 c 0,-50.22323 -40.82398,-90.98123 -91.12497,-90.98123 z m 0,20.60495 c 38.9815,0 70.61868,31.54289 70.61868,70.40822 -6e-5,38.86531 -31.63721,70.37627 -70.61868,70.37627 -38.98149,0 -70.61869,-31.54288 -70.61869,-70.40821 0,-38.86534 31.6372,-70.37628 70.61869,-70.37628 z"
             id="path3318" />
          <path
             style="fill:#c0c0c0;stroke-width:6.20735121;stroke-miterlimit:4;stroke-dasharray:none"
             inkscape:connector-curvature="0"
             stroke-miterlimit="4"
             id="path3313"
             d="m 221.0759,144.27289 c -49.05899,0 -88.875,39.87045 -88.875,89 0,49.12954 39.81601,89.03125 88.875,89.03125 49.05899,0 88.875,-39.87046 88.875,-89 l 0,-0.0312 c 0,-49.12955 -39.81598,-89 -88.875,-89 z m 0,20.15625 c 38.01901,0 68.875,30.85602 68.875,68.875 0,38.01898 -30.85602,68.84375 -68.875,68.84375 -38.01899,0 -68.875,-30.85602 -68.875,-68.875 0,-38.01898 30.85601,-68.84375 68.875,-68.84375 z" />
          <path
             style="opacity:0.88484904;fill:#000000;stroke-width:6.20735121;stroke-miterlimit:4;stroke-dasharray:none;filter:url(#filter3390)"
             inkscape:connector-curvature="0"
             stroke-miterlimit="4"
             id="path3394"
             d="m 413.74542,289.21997 c -4.35595,10.64514 -15.67157,16.74194 -26.61233,13.81036 -10.38483,-2.78259 -17.0145,-12.77087 -16.33499,-23.52545 -8.06751,-0.32876 -16.06385,0.16107 -23.91022,1.3953 1.11002,11.2294 -5.8378,22.10687 -16.71671,25.2417 -10.10104,2.91067 -20.38024,-1.75751 -25.19616,-10.70322 -5.94702,3.31582 -11.6687,7.1015 -17.06946,11.33581 6.55942,9.03812 5.74042,22.09668 -2.35544,30.49536 -7.72153,8.01038 -19.52771,9.15622 -28.15707,3.33332 -4.23737,6.70019 -7.94507,13.85132 -11.02542,21.40915 10.62323,4.03637 16.59301,15.9346 13.46084,27.62396 -2.95044,11.01126 -12.98602,18.13663 -23.51751,17.41003 -0.19388,3.70215 -0.2547,7.38202 -0.14837,11.04193 2.1017,-0.0134 4.17046,0.27314 6.13466,0.84934 7.24195,2.12439 13.1917,8.04043 15.20697,16.15454 2.74308,11.04434 -2.73117,22.46097 -12.46943,27.23532 2.78253,7.23019 6.18007,14.17722 10.151,20.74808 5.44374,-4.05173 12.18944,-5.33811 18.37742,-3.83524 3.84156,0.93305 7.45136,2.94495 10.42505,6.03235 8.24518,8.56043 8.48523,22.33814 0.83478,31.55386 5.9118,4.68085 12.27686,8.84314 19.06223,12.40046 4.78884,-9.65345 15.52444,-14.98871 25.90927,-12.20612 10.94076,2.93158 17.69195,13.86932 16.14175,25.2663 6.78714,0.82159 13.55463,1.0733 20.24896,0.7608 -0.55752,-10.82574 6.30573,-21.08203 16.82407,-24.11292 3.74451,-1.07904 7.51568,-1.10437 11.01974,-0.26586 7.04493,1.68579 13.00306,6.90844 15.59171,14.28167 7.53616,-3.24658 14.77344,-7.22888 21.6044,-11.87256 -5.61261,-8.95849 -4.51673,-21.21637 3.20642,-29.22842 5.80234,-6.01941 13.91299,-8.16797 21.24692,-6.38678 2.92557,0.71054 5.73092,2.05209 8.21411,4.01398 4.26337,-5.83503 8.09915,-12.07401 11.44278,-18.66953 -8.72403,-4.9603 -13.30249,-15.68738 -10.47665,-26.23355 3.0054,-11.21628 13.36862,-18.41272 24.11254,-17.37286 1.64298,-11.83872 1.70057,-23.58646 0.32077,-34.99247 -11.41622,2.33698 -22.6372,-4.76702 -25.56271,-16.54599 -2.73502,-11.01202 2.71161,-22.39465 12.39954,-27.19293 -3.28843,-6.55203 -7.10651,-12.81415 -11.42566,-18.68588 -8.79639,6.36032 -20.85566,5.60773 -28.54105,-2.37152 -7.22308,-7.49921 -8.30957,-19.00891 -3.32455,-27.94315 -5.98633,-3.93768 -12.36182,-7.37884 -19.0922,-10.24917 z m -38.43948,76.88699 c 0.74667,0.20005 1.47922,0.41559 2.20618,0.65226 2.90774,0.94668 5.66186,2.18661 8.22784,3.67132 0.64157,0.37106 1.27606,0.75784 1.89462,1.15952 1.23703,0.80365 2.42099,1.6651 3.56211,2.58413 0.57061,0.45932 1.1231,0.93677 1.66745,1.4246 0.27218,0.24389 0.54873,0.49731 0.81445,0.74786 0.0372,0.0349 0.07,0.0752 0.10708,0.11017 0.36136,0.34115 0.7186,0.68701 1.06797,1.03988 0.38434,0.3898 0.75812,0.77564 1.12848,1.17832 0.98745,1.07422 1.92932,2.19406 2.8078,3.3598 0.32946,0.43698 0.65396,0.89011 0.96826,1.33911 0.19296,0.27628 0.39166,0.54657 0.57849,0.82724 0.2525,0.37814 0.48437,0.76605 0.72571,1.15189 0.4523,0.72311 0.89178,1.45431 1.30282,2.20282 0.26447,0.4819 0.51126,0.97448 0.75858,1.46624 0.004,0.008 0.009,0.0157 0.0131,0.0239 0.11429,0.22763 0.23334,0.45328 0.34393,0.68292 0.28385,0.58933 0.55045,1.18335 0.80964,1.78549 0.0727,0.16904 0.14492,0.33597 0.21572,0.50595 0.21354,0.51142 0.42307,1.03116 0.61875,1.55103 0.24359,0.6488 0.47058,1.29489 0.68588,1.95602 0.30078,0.92359 0.5835,1.86353 0.82816,2.80899 0.13949,0.53839 0.26199,1.08563 0.38281,1.63037 0.32355,1.45893 0.5809,2.9242 0.76666,4.42218 0.0815,0.65619 0.15897,1.30948 0.21323,1.97199 0.006,0.0676 -0.002,0.13699 0.004,0.20468 0.0463,0.59558 0.0793,1.19998 0.10321,1.79993 0.003,0.0824 0.009,0.1651 0.0117,0.24759 0.008,0.23739 -8.5e-4,0.47598 0.004,0.71399 0.0115,0.58453 0.0272,1.16873 0.0172,1.75653 -0.003,0.16174 -0.009,0.32342 -0.013,0.48541 -0.0111,0.41431 -0.039,0.83108 -0.0608,1.24667 -0.0269,0.51288 -0.0572,1.02704 -0.1008,1.54154 -0.002,0.0269 1.5e-4,0.054 -0.002,0.0809 -0.004,0.0461 -0.0133,0.0918 -0.0174,0.13791 -0.053,0.59384 -0.10974,1.18826 -0.18521,1.78375 -0.005,0.0397 -0.007,0.0792 -0.0124,0.1189 -0.0168,0.13025 -0.0475,0.25958 -0.0654,0.38989 -0.0754,0.54846 -0.15097,1.09598 -0.24569,1.64529 -0.1178,0.68265 -0.24625,1.37064 -0.39417,2.05368 -0.16775,0.77341 -0.35953,1.56037 -0.56668,2.33341 -0.41766,1.55872 -0.89627,3.06235 -1.45093,4.54095 -0.002,0.006 -0.003,0.0129 -0.005,0.019 -0.2753,0.73303 -0.56678,1.4573 -0.87406,2.16955 -0.003,0.006 -0.003,0.0131 -0.005,0.019 -0.30756,0.7121 -0.63477,1.41163 -0.97315,2.10227 -0.003,0.006 -0.002,0.0132 -0.005,0.019 -0.16931,0.34528 -0.34729,0.68106 -0.52697,1.01993 -0.17716,0.34045 -0.36069,0.6802 -0.54523,1.01504 -0.003,0.006 -0.002,0.0135 -0.005,0.019 -0.36856,0.66822 -0.75595,1.32718 -1.15304,1.97257 -0.003,0.005 -0.002,0.0137 -0.005,0.019 -0.79797,1.29575 -1.6607,2.55353 -2.56689,3.75302 -0.90989,1.20438 -1.86539,2.34467 -2.87506,3.44638 -0.004,0.004 -10e-4,0.0148 -0.005,0.019 -1.0062,1.09716 -2.06393,2.13598 -3.15991,3.12561 -0.004,0.004 -10e-4,0.0154 -0.005,0.019 -0.54629,0.49292 -1.10342,0.96136 -1.67029,1.42654 -0.004,0.003 -0.001,0.0157 -0.005,0.019 -0.56717,0.46515 -1.15946,0.90845 -1.74607,1.34516 -0.004,0.003 -10e-4,0.016 -0.005,0.019 -2.35928,1.75516 -4.87583,3.28195 -7.50305,4.54895 -2.63141,1.26898 -5.37897,2.28229 -8.20487,3.01645 -1.41302,0.36712 -2.84897,0.6608 -4.29666,0.88577 -1.44763,0.22492 -2.90393,0.37976 -4.37692,0.45688 -0.73654,0.0386 -1.47943,0.0563 -2.22055,0.0568 -2.96439,0.002 -5.9697,-0.30029 -8.96122,-0.93444 -0.74786,-0.15854 -1.49005,-0.33817 -2.23672,-0.53821 -0.74667,-0.20007 -1.47925,-0.41562 -2.20618,-0.65228 -2.90774,-0.94669 -5.66186,-2.18662 -8.22784,-3.67133 -0.64157,-0.37106 -1.27606,-0.75784 -1.89462,-1.15952 -1.23703,-0.80365 -2.42099,-1.6651 -3.56211,-2.58413 -1.14126,-0.91867 -2.23797,-1.89096 -3.27813,-2.91544 -0.51999,-0.51245 -1.01358,-1.04828 -1.5073,-1.58539 -0.49374,-0.53711 -0.98178,-1.09167 -1.4505,-1.65164 -0.46692,-0.56036 -0.91797,-1.12552 -1.3573,-1.70816 -0.87866,-1.16528 -1.70181,-2.3674 -2.46628,-3.61459 -0.37982,-0.61969 -0.74014,-1.26346 -1.09082,-1.90158 -0.3551,-0.64624 -0.69632,-1.27994 -1.02087,-1.94394 -0.002,-0.004 0.007,-0.0147 0.005,-0.019 -0.32242,-0.66004 -0.63611,-1.32407 -0.92768,-2.00046 -0.29168,-0.67612 -0.57431,-1.36573 -0.8345,-2.05695 -0.26007,-0.6915 -0.50021,-1.38418 -0.72815,-2.0896 -0.45605,-1.41037 -0.84512,-2.84686 -1.16867,-4.30582 -0.32355,-1.45892 -0.5809,-2.92419 -0.76669,-4.42218 -7.4e-4,-0.006 0.006,-0.013 0.005,-0.019 -0.0921,-0.74316 -0.18081,-1.49243 -0.23803,-2.24344 -4.9e-4,-0.006 0.006,-0.0129 0.005,-0.019 -0.0574,-0.75711 -0.0922,-1.50732 -0.11352,-2.27121 -0.0209,-0.74722 -0.0183,-1.48971 -0.004,-2.24191 10e-4,-0.0539 0.003,-0.10791 0.004,-0.16181 0.015,-0.68411 0.043,-1.38732 0.0875,-2.07473 0.0113,-0.17276 0.0282,-0.34562 0.0414,-0.51856 0.0368,-0.48593 0.0651,-0.96857 0.11686,-1.45575 0.0259,-0.24402 0.0494,-0.48825 0.0792,-0.73251 0.002,-0.0192 0.0129,-0.0378 0.0153,-0.057 0.0788,-0.64166 0.17523,-1.27804 0.28058,-1.92117 0.0181,-0.11093 0.0312,-0.22186 0.0501,-0.33286 0.11227,-0.65683 0.25155,-1.31509 0.39199,-1.97277 0.0111,-0.0521 0.0112,-0.10489 0.0225,-0.15693 0.16885,-0.77978 0.35788,-1.55404 0.56671,-2.3334 0.2088,-0.77936 0.43225,-1.54443 0.67593,-2.30411 0.23987,-0.75253 0.49884,-1.5007 0.775,-2.23685 0.002,-0.006 0.003,-0.0129 0.005,-0.019 0.27503,-0.73318 0.56705,-1.45712 0.87406,-2.16955 0.003,-0.006 0.003,-0.0131 0.005,-0.019 0.30725,-0.71225 0.63504,-1.41143 0.97315,-2.10223 0.003,-0.006 0.002,-0.0133 0.005,-0.019 0.33835,-0.69068 0.70413,-1.36646 1.07218,-2.03497 0.003,-0.006 0.002,-0.0135 0.005,-0.019 0.36829,-0.66839 0.75623,-1.32699 1.15308,-1.97256 0.003,-0.005 0.002,-0.0137 0.005,-0.019 0.40033,-0.6507 0.8057,-1.28336 1.23392,-1.91016 0.32083,-0.4696 0.65927,-0.92752 0.99518,-1.38336 0.0382,-0.0517 0.0804,-0.10001 0.11868,-0.15155 0.16434,-0.22113 0.32215,-0.44534 0.48993,-0.66318 0.2587,-0.33548 0.52533,-0.66217 0.79212,-0.98962 0.18283,-0.22461 0.36312,-0.44672 0.54968,-0.66754 0.4107,-0.48575 0.83365,-0.9661 1.26245,-1.43399 0.004,-0.004 10e-4,-0.0148 0.005,-0.019 0.50479,-0.55084 1.01406,-1.0794 1.54205,-1.60351 0.53183,-0.52787 1.06879,-1.04108 1.62295,-1.54111 0.54609,-0.4931 1.10361,-0.96118 1.67029,-1.42654 0.004,-0.003 0.001,-0.0158 0.005,-0.019 0.56698,-0.4653 1.15963,-0.90826 1.74606,-1.34512 0.004,-0.003 0.001,-0.0161 0.005,-0.019 0.59063,-0.4397 1.19445,-0.85849 1.80362,-1.26862 1.82766,-1.23043 3.72573,-2.32849 5.69943,-3.28033 2.63138,-1.26898 5.37893,-2.28229 8.20483,-3.01642 1.41306,-0.36716 2.849,-0.66083 4.29669,-0.8858 1.44764,-0.22489 2.90393,-0.37976 4.37693,-0.45685 0.73651,-0.0386 1.47943,-0.0563 2.22055,-0.0569 2.96438,-0.002 5.96969,0.30029 8.96118,0.93444 0.74789,0.15854 1.49008,0.33817 2.23675,0.53824 z" />
          <path
             style="fill:#c0c0c0;stroke-width:6.20735121;stroke-miterlimit:4;stroke-dasharray:none"
             inkscape:connector-curvature="0"
             stroke-miterlimit="4"
             d="m 414.30487,289.99017 c -4.40265,10.57859 -16.09564,16.53254 -27.50616,13.4751 -10.83063,-2.90207 -17.84247,-12.9552 -17.26374,-23.68671 -8.39209,-0.42413 -16.70044,-0.0299 -24.84405,1.10935 1.28747,11.22696 -5.80731,22.0068 -17.08142,25.00806 -10.46802,2.78665 -21.21125,-1.99714 -26.32483,-10.98758 -6.14405,3.24057 -12.04819,6.95303 -17.61338,11.11731 6.92753,9.10345 6.23105,22.13409 -2.08685,30.42495 -7.93335,7.9075 -20.19522,8.91153 -29.23678,2.99424 -4.32621,6.64056 -8.09638,13.73773 -11.20939,21.24847 11.09345,4.15692 17.44181,16.10944 14.32398,27.74536 -2.93695,10.96088 -13.28684,17.95715 -24.24558,17.10651 -0.15762,3.6947 -0.17715,7.36871 -0.0231,11.02484 2.18509,0.0116 4.33948,0.32226 6.38861,0.92096 7.55503,2.20745 13.81156,8.18591 16.0033,16.31268 2.98325,11.06158 -2.57297,22.39728 -12.64163,27.04931 2.979,7.25318 6.59408,14.23096 10.8009,20.83979 5.61203,-3.98145 12.6106,-5.18592 19.06238,-3.61163 4.00537,0.97735 7.78256,3.02935 10.9111,6.14776 8.67462,8.64642 9.08786,22.40784 1.24274,31.5199 6.20239,4.74457 12.86987,8.97662 19.96725,12.60962 4.86453,-9.58319 15.9635,-14.78357 26.79419,-11.88147 11.41046,3.05737 18.55994,14.06018 17.0835,25.42285 7.06665,0.90106 14.1062,1.23279 21.06292,1.00024 -0.70831,-10.81726 6.30597,-20.97778 17.20643,-23.87958 3.88055,-1.03302 7.80127,-1.01355 11.45465,-0.13458 7.34497,1.76715 13.60193,7.05329 16.3811,14.44696 7.79712,-3.15253 15.27478,-7.04333 22.32214,-11.59942 -5.94213,-9.01276 -4.94824,-21.24048 2.98676,-29.14966 5.96149,-5.94214 14.36908,-7.9914 22.01562,-6.12555 3.0503,0.74426 5.9831,2.11731 8.58832,4.10589 4.36353,-5.77624 8.27771,-11.96099 11.67591,-18.50762 -9.12976,-5.05701 -14.01758,-15.82349 -11.20466,-26.32148 2.99164,-11.16491 13.68128,-18.22833 24.86469,-17.06231 1.56769,-11.80274 1.48804,-23.53345 -0.0821,-34.93994 -11.84229,2.19812 -23.59363,-5.02924 -26.77533,-16.8266 -2.97455,-11.02918 2.5534,-22.33124 12.56946,-27.00782 -3.49695,-6.58197 -7.5412,-12.8807 -12.10175,-18.79556 -9.07056,6.24698 -21.6181,5.3522 -29.70374,-2.70721 -7.5993,-7.57459 -8.86566,-19.08115 -3.78857,-27.94376 -6.27112,-4.0033 -12.94092,-7.51538 -19.9729,-10.46167 z m -39.05426,76.32349 c 0.77869,0.20862 1.54297,0.43255 2.30158,0.67755 3.0346,0.97992 5.9129,2.25079 8.59851,3.76392 0.67151,0.37817 1.33581,0.77197 1.9837,1.18042 1.29572,0.8172 2.53699,1.69152 3.73438,2.62286 0.59881,0.46545 1.17889,0.94879 1.75067,1.44238 0.28589,0.24683 0.57641,0.50318 0.85571,0.75653 0.0391,0.0352 0.0737,0.0759 0.11267,0.11127 0.37976,0.34497 0.75531,0.69458 1.12274,1.05115 0.4043,0.3938 0.79749,0.78357 1.18732,1.19006 1.03949,1.08441 2.0321,2.21393 2.95935,3.38849 0.34778,0.44025 0.69055,0.89661 1.02264,1.34869 0.20392,0.2782 0.4137,0.55048 0.61133,0.83301 0.26703,0.38062 0.51276,0.77069 0.76825,1.15888 0.47882,0.72748 0.94446,1.46289 1.38074,2.21521 0.2807,0.48437 0.54315,0.97925 0.80615,1.4732 0.004,0.008 0.01,0.0158 0.0139,0.024 0.12152,0.22864 0.24798,0.45538 0.36572,0.68604 0.30213,0.59185 0.58637,1.18823 0.86304,1.7926 0.0776,0.16968 0.15466,0.33722 0.23028,0.50781 0.22809,0.51325 0.45215,1.03473 0.66181,1.55622 0.26092,0.65081 0.50464,1.2987 0.73633,1.96148 0.32373,0.92584 0.62884,1.86786 0.89441,2.81488 0.15148,0.53931 0.28533,1.08722 0.41741,1.63269 0.35376,1.46076 0.63874,2.927 0.84967,4.42511 0.0926,0.65625 0.18085,1.30957 0.24512,1.97174 0.007,0.0676 0,0.13684 0.006,0.20447 0.0552,0.59528 0.0967,1.19928 0.12872,1.79865 0.004,0.0823 0.0111,0.16497 0.0151,0.24737 0.0114,0.23718 0.005,0.47534 0.0125,0.71308 0.0189,0.58386 0.0421,1.16741 0.0388,1.75427 -9.2e-4,0.1615 -0.005,0.32287 -0.008,0.48456 -0.007,0.41363 -0.0306,0.82946 -0.0485,1.24426 -0.0219,0.51184 -0.0473,1.0249 -0.0865,1.53821 -0.002,0.0268 8.5e-4,0.0539 -10e-4,0.0808 -0.004,0.046 -0.0128,0.0915 -0.0165,0.13751 -0.0481,0.59241 -0.1,1.1853 -0.17139,1.77905 -0.005,0.0396 -0.007,0.079 -0.0115,0.11865 -0.0159,0.12983 -0.0463,0.25861 -0.0634,0.38855 -0.0719,0.54682 -0.14398,1.09265 -0.23596,1.64008 -0.11432,0.6803 -0.23975,1.36578 -0.38544,2.04614 -0.16522,0.77033 -0.35528,1.55396 -0.56146,2.32343 -0.41577,1.55157 -0.89551,3.04742 -1.45471,4.51739 -0.002,0.006 -0.003,0.0129 -0.005,0.0189 -0.27753,0.7287 -0.57196,1.44849 -0.88306,2.15613 -0.003,0.006 -0.002,0.0131 -0.005,0.0189 -0.31128,0.70746 -0.64319,1.4021 -0.98682,2.08777 -0.003,0.006 -0.002,0.0132 -0.005,0.0189 -0.17194,0.34278 -0.35303,0.67597 -0.53583,1.01227 -0.18018,0.33783 -0.36694,0.67499 -0.55481,1.00714 -0.003,0.005 -0.002,0.0134 -0.005,0.0189 -0.37524,0.66291 -0.7702,1.31635 -1.17541,1.95612 -0.003,0.005 -0.002,0.0137 -0.005,0.0189 -0.81433,1.28448 -1.69641,2.53027 -2.62439,3.71735 -0.93176,1.19189 -1.91168,2.31921 -2.94842,3.40741 -0.004,0.004 -0.001,0.0148 -0.005,0.0189 -1.03314,1.08368 -2.12061,2.10846 -3.24841,3.08374 -0.004,0.004 -9.2e-4,0.0153 -0.005,0.0189 -0.56213,0.48572 -1.13586,0.9469 -1.71973,1.40472 -0.004,0.003 -8.5e-4,0.0156 -0.005,0.0189 -0.58423,0.45777 -1.19477,0.89344 -1.7995,1.32251 -0.004,0.003 -9.2e-4,0.016 -0.005,0.0189 -2.43225,1.72467 -5.03064,3.21949 -7.74731,4.45349 -2.72089,1.23597 -5.56562,2.21527 -8.49512,2.9148 -1.46484,0.34985 -2.95441,0.6261 -4.45697,0.83356 -1.5025,0.20739 -3.01483,0.34472 -4.54547,0.40423 -0.76538,0.0298 -1.5376,0.0386 -2.30817,0.0304 -3.08221,-0.033 -6.21057,-0.37079 -9.32849,-1.03955 -0.77954,-0.16724 -1.55334,-0.35541 -2.33203,-0.56403 -0.77875,-0.20868 -1.54303,-0.43262 -2.30164,-0.67755 -3.0346,-0.97998 -5.9129,-2.25085 -8.59851,-3.76398 -0.67151,-0.37817 -1.33581,-0.77197 -1.9837,-1.18042 -1.29578,-0.8172 -2.53699,-1.69153 -3.73438,-2.6228 -1.19757,-0.93097 -2.34942,-1.91498 -3.44308,-2.95038 -0.54675,-0.51788 -1.06635,-1.05884 -1.58606,-1.60107 -0.51971,-0.54218 -1.03378,-1.10181 -1.52777,-1.66657 -0.49213,-0.56512 -0.96781,-1.13482 -1.43152,-1.72186 -0.92746,-1.17413 -1.79758,-2.38434 -2.60727,-3.63885 -0.40228,-0.62336 -0.78455,-1.27051 -1.15674,-1.91193 -0.37692,-0.64954 -0.73922,-1.28644 -1.08456,-1.95337 -0.002,-0.004 0.007,-0.0145 0.005,-0.0189 -0.34307,-0.66296 -0.67712,-1.32977 -0.98831,-2.00867 -0.31131,-0.67865 -0.61334,-1.3706 -0.89206,-2.06402 -0.27865,-0.69361 -0.53656,-1.38819 -0.78192,-2.09534 -0.49096,-1.41382 -0.91253,-2.85291 -1.26626,-4.31366 -0.35376,-1.46075 -0.63874,-2.92706 -0.8497,-4.42517 -8.3e-4,-0.006 0.006,-0.0129 0.005,-0.0189 -0.10455,-0.74323 -0.20575,-1.4925 -0.27417,-2.24317 -5.5e-4,-0.006 0.006,-0.0127 0.005,-0.0189 -0.0686,-0.75671 -0.11377,-1.50628 -0.14499,-2.26935 -0.0306,-0.74646 -0.0367,-1.48785 -0.0311,-2.23889 4e-4,-0.0538 0.002,-0.10772 0.003,-0.1615 0.008,-0.68298 0.0283,-1.38488 0.0664,-2.0708 0.01,-0.17242 0.0252,-0.34485 0.0368,-0.51739 0.0325,-0.4848 0.0562,-0.96643 0.10421,-1.45233 0.0241,-0.24335 0.0456,-0.48694 0.0736,-0.73053 0.002,-0.0192 0.013,-0.0376 0.0152,-0.0568 0.0743,-0.63977 0.16702,-1.27417 0.26889,-1.91516 0.0176,-0.11053 0.0298,-0.22119 0.0482,-0.33179 0.10892,-0.6546 0.24591,-1.31024 0.38415,-1.96539 0.0109,-0.0518 0.0104,-0.10455 0.0215,-0.15643 0.16629,-0.77667 0.35364,-1.54761 0.56149,-2.32343 0.20789,-0.77575 0.43112,-1.53711 0.67545,-2.29284 0.24048,-0.74866 0.50088,-1.49268 0.77923,-2.22455 0.002,-0.006 0.003,-0.0128 0.005,-0.0189 0.27725,-0.72888 0.57233,-1.44831 0.88306,-2.15613 0.003,-0.006 0.002,-0.013 0.005,-0.0189 0.31101,-0.70758 0.64353,-1.40192 0.98685,-2.08777 0.003,-0.006 0.002,-0.0132 0.005,-0.0189 0.34356,-0.68567 0.71591,-1.35614 1.09063,-2.01941 0.003,-0.005 0.002,-0.0134 0.005,-0.0189 0.375,-0.66309 0.77051,-1.31616 1.17547,-1.95612 0.003,-0.005 0.002,-0.0137 0.005,-0.0189 0.40854,-0.64502 0.82248,-1.27203 1.26028,-1.89282 0.32801,-0.46515 0.67447,-0.9184 1.01832,-1.36963 0.039,-0.0512 0.0823,-0.0989 0.12158,-0.1499 0.16824,-0.21893 0.32965,-0.44092 0.50155,-0.6565 0.26496,-0.3319 0.53836,-0.65496 0.81183,-0.97882 0.18744,-0.2221 0.37226,-0.44177 0.5636,-0.66009 0.42127,-0.48017 0.85532,-0.95484 1.29563,-1.41699 0.004,-0.004 0.001,-0.0148 0.005,-0.0189 0.51831,-0.54407 1.04157,-1.06586 1.58432,-1.58295 0.54666,-0.52081 1.09891,-1.02692 1.66916,-1.51965 0.56195,-0.48597 1.13605,-0.94678 1.71973,-1.40479 0.004,-0.003 10e-4,-0.0157 0.005,-0.0189 0.58405,-0.45789 1.19495,-0.89319 1.7995,-1.32251 0.004,-0.003 0.001,-0.016 0.005,-0.0189 0.60889,-0.43201 1.23175,-0.84308 1.86029,-1.24542 1.88568,-1.20703 3.84619,-2.28101 5.88702,-3.20807 2.72089,-1.23596 5.56562,-2.21521 8.49518,-2.9148 1.46479,-0.34985 2.95435,-0.62604 4.45691,-0.83349 1.5025,-0.2074 3.01483,-0.34479 4.54547,-0.4043 0.76538,-0.0297 1.5376,-0.0386 2.30817,-0.0304 3.08221,0.033 6.21057,0.37079 9.32849,1.03955 0.77948,0.16724 1.55335,0.35541 2.33209,0.56409 z"
             id="path3396" />
          <path
             style="opacity:0.79393897;fill:#a9a9a9;stroke-width:6.20735121;stroke-miterlimit:4;stroke-dasharray:none"
             inkscape:connector-curvature="0"
             stroke-miterlimit="4"
             d="m 390.95111,307.68036 c -57.40948,-15.38281 -116.43179,18.56201 -131.75693,75.75616 -15.32513,57.1941 18.82239,116.08344 76.23185,131.46631 57.40948,15.38282 116.4458,-18.53802 131.77087,-75.73218 15.32513,-57.19409 -18.83624,-116.10745 -76.24579,-131.49029 z m -15.69104,58.6358 c 0.77875,0.20868 1.54297,0.43262 2.30164,0.67755 3.03454,0.97992 5.9129,2.25086 8.59851,3.76398 0.67145,0.37817 1.33575,0.77197 1.9837,1.18042 1.29572,0.8172 2.53699,1.69153 3.73438,2.6228 1.79632,1.39643 3.4696,2.92542 5.02911,4.5514 1.03943,1.08447 2.03204,2.21392 2.95929,3.38848 1.39117,1.76117 2.65991,3.61902 3.78302,5.55585 2.24548,3.87506 3.92841,8.06543 4.98908,12.44892 0.3537,1.46075 0.63873,2.92706 0.84967,4.42517 0.7406,5.25 0.5838,10.70446 -0.58155,16.14733 -0.16522,0.77033 -0.35528,1.5539 -0.56146,2.32343 -0.41577,1.55157 -0.89557,3.04742 -1.45471,4.51739 -0.002,0.006 -0.003,0.0129 -0.005,0.0189 -0.27758,0.72869 -0.57202,1.44848 -0.88305,2.15612 -0.003,0.006 -0.003,0.013 -0.005,0.0189 -0.31128,0.70746 -0.64325,1.4021 -0.98688,2.08777 -0.003,0.006 -0.002,0.0132 -0.005,0.0189 -0.34387,0.68549 -0.71564,1.35633 -1.09064,2.01941 -0.003,0.005 -0.002,0.0134 -0.005,0.0189 -0.3753,0.66291 -0.7702,1.31635 -1.17547,1.95612 -0.003,0.005 -0.002,0.0136 -0.005,0.0189 -1.63196,2.57422 -3.50354,4.95282 -5.57275,7.12476 -0.004,0.004 -0.001,0.0147 -0.005,0.0189 -1.0332,1.08368 -2.1206,2.10846 -3.24841,3.08368 -0.004,0.004 -9.2e-4,0.0154 -0.005,0.0189 -0.56213,0.48578 -1.13586,0.94696 -1.71978,1.40478 -0.004,0.003 -8.6e-4,0.0156 -0.005,0.0189 -0.58417,0.45771 -1.1947,0.89338 -1.7995,1.32251 -0.004,0.003 -8.6e-4,0.0159 -0.005,0.0189 -1.21411,0.8609 -2.46747,1.6585 -3.7572,2.3999 -0.65094,0.37445 -1.30823,0.72931 -1.97668,1.07226 -0.66425,0.34082 -1.33313,0.67231 -2.01337,0.98133 -2.72095,1.23596 -5.56568,2.21521 -8.49518,2.91479 -1.46484,0.34986 -2.95435,0.62604 -4.45697,0.8335 -1.50244,0.20739 -3.01483,0.34472 -4.54547,0.40429 -0.76532,0.0297 -1.53754,0.0386 -2.30817,0.0304 -3.08215,-0.033 -6.21051,-0.37079 -9.32849,-1.03961 -0.77948,-0.16718 -1.55328,-0.35535 -2.33203,-0.56403 -0.77869,-0.20862 -1.54297,-0.43261 -2.30164,-0.67755 -3.03454,-0.97992 -5.9129,-2.25079 -8.59851,-3.76391 -0.67144,-0.37818 -1.33575,-0.77198 -1.9837,-1.18042 -1.29571,-0.81727 -2.53699,-1.69153 -3.73437,-2.62287 -1.79633,-1.39642 -3.46964,-2.92535 -5.02912,-4.55139 -1.03943,-1.08447 -2.03207,-2.21393 -2.95929,-3.38849 -1.85794,-2.35199 -3.46933,-4.86731 -4.8435,-7.52301 -0.34305,-0.66296 -0.6771,-1.32977 -0.98832,-2.00867 -1.24524,-2.7146 -2.23279,-5.55157 -2.94024,-8.47308 -0.35373,-1.46075 -0.63874,-2.927 -0.8497,-4.42511 -8.3e-4,-0.006 0.006,-0.0129 0.005,-0.0189 -0.10455,-0.74323 -0.20578,-1.49249 -0.27417,-2.24316 -5.5e-4,-0.006 0.006,-0.0128 0.005,-0.0189 -0.0687,-0.75677 -0.1138,-1.50634 -0.14502,-2.2694 -0.1568,-3.82081 0.15619,-7.7074 0.99057,-11.59693 0.16629,-0.77667 0.35363,-1.54761 0.56152,-2.32342 0.41745,-1.55799 0.8977,-3.06061 1.45975,-4.53632 0.27725,-0.72888 0.57229,-1.44836 0.88302,-2.15613 0.003,-0.006 0.002,-0.013 0.005,-0.0189 0.311,-0.70764 0.64355,-1.40192 0.98685,-2.08777 0.003,-0.006 0.002,-0.0132 0.005,-0.0189 0.34363,-0.68567 0.71594,-1.3562 1.09067,-2.01941 0.003,-0.005 0.002,-0.0134 0.005,-0.0189 0.375,-0.66308 0.7705,-1.31616 1.17547,-1.95611 0.003,-0.005 0.002,-0.0137 0.005,-0.0189 0.40854,-0.64508 0.82251,-1.27203 1.26028,-1.89282 1.31677,-1.86725 2.75803,-3.61511 4.31757,-5.25085 0.51831,-0.54407 1.04156,-1.06586 1.58432,-1.58295 0.54669,-0.52081 1.09888,-1.02692 1.66913,-1.51971 0.56195,-0.4859 1.1361,-0.94672 1.71978,-1.40473 0.004,-0.003 0.001,-0.0157 0.005,-0.0189 0.58398,-0.45788 1.19495,-0.89325 1.7995,-1.32251 0.004,-0.003 10e-4,-0.0161 0.005,-0.0189 0.60888,-0.43207 1.23175,-0.84314 1.86023,-1.24542 0.6286,-0.40234 1.24993,-0.78253 1.89697,-1.15448 0.651,-0.37445 1.30823,-0.72931 1.97668,-1.07227 0.66425,-0.34082 1.33313,-0.6723 2.01337,-0.98132 2.72095,-1.23596 5.56567,-2.21527 8.49518,-2.91479 1.46484,-0.34986 2.95441,-0.6261 4.45697,-0.83356 1.5025,-0.2074 3.01483,-0.34473 4.54547,-0.40424 0.76532,-0.0298 1.53754,-0.0386 2.3081,-0.0304 3.08222,0.033 6.21058,0.37079 9.32856,1.03955 0.77948,0.16723 1.55328,0.35541 2.33203,0.56402 z"
             id="path3398" />
          <path
             style="opacity:0.79393897;fill:url(#radialGradient3406);stroke-width:6.20735121;stroke-miterlimit:4;stroke-dasharray:none"
             inkscape:connector-curvature="0"
             stroke-miterlimit="4"
             d="m 387.33667,321.1698 c -49.93384,-13.37973 -101.27274,16.14832 -114.60226,65.89477 -13.32953,49.74653 16.37231,100.96912 66.30612,114.34882 49.93378,13.37976 101.28668,-16.12433 114.61621,-65.87079 13.32953,-49.74652 -16.38629,-100.99307 -66.32007,-114.3728 z m -12.0766,45.14636 c 24.91901,6.67706 39.73731,32.25983 33.08539,57.08533 -6.65198,24.8255 -32.27136,39.55273 -57.19037,32.87567 -24.91898,-6.677 -39.7373,-32.25977 -33.08533,-57.08527 6.65195,-24.8255 32.2713,-39.55273 57.19031,-32.87573 z"
             id="path3400" />
          <path
             style="opacity:0.58787902;fill:#696969;stroke-width:6.20735121;stroke-miterlimit:4;stroke-dasharray:none;filter:url(#filter3340)"
             inkscape:connector-curvature="0"
             stroke-miterlimit="4"
             id="path3402"
             d="m 377.95975,356.20303 c -30.56769,-8.19058 -61.98804,9.83753 -70.13529,40.24344 -8.14724,30.40592 10.04434,61.74826 40.61203,69.93885 30.56769,8.19058 61.98804,-9.83753 70.13529,-40.24347 l 0.005,-0.0193 c 8.14725,-30.40595 -10.0495,-61.72891 -40.61718,-69.9195 z m -3.34256,12.47455 c 23.68887,6.34741 37.79773,30.59552 31.49298,54.12518 -6.30478,23.52967 -30.64228,37.45539 -54.33112,31.10798 -23.68887,-6.34742 -37.79776,-30.59552 -31.49298,-54.12519 6.30475,-23.52969 30.64224,-37.45538 54.33112,-31.10797 z" />
          <path
             style="fill:#c0c0c0;stroke-width:6.20735121;stroke-miterlimit:4;stroke-dasharray:none"
             inkscape:connector-curvature="0"
             stroke-miterlimit="4"
             d="m 377.63824,357.40271 c -29.81292,-7.98834 -60.47671,9.6665 -68.44656,39.41034 -7.96982,29.74377 9.75333,60.38422 39.56626,68.37256 29.81292,7.98834 60.47674,-9.66657 68.44653,-39.41034 l 0.005,-0.0189 c 7.96985,-29.74384 -9.75836,-60.3653 -39.57128,-68.35364 z m -3.26971,12.20288 c 23.10394,6.19067 36.84949,29.89575 30.68207,52.91303 -6.16748,23.01727 -29.91895,36.65472 -53.02289,30.46405 -23.104,-6.19068 -36.84958,-29.8957 -30.6821,-52.91303 6.16745,-23.01727 29.91892,-36.65472 53.02292,-30.46405 z"
             id="path3404" />
        </g>
      </g>
    </g>
  </g>
</svg>
